<svg id="Component_92_4" data-name="Component 92 – 4" xmlns="http://www.w3.org/2000/svg" width="149.212" height="50.897" viewBox="0 0 149.212 50.897">
  <path id="Path_37" data-name="Path 37" d="M19.208-44.222H29.775L23.287-79.365H13.015L-6.105-44.222H4.118l2.6-5.21H18.47ZM13.8-63.44c.836-1.72,2.113-4.522,2.113-4.522h.1s.246,2.8.492,4.522l.983,7.029H10.262ZM52.041-44.222H62.608L56.12-79.365H45.848L26.728-44.222H36.951l2.6-5.21H51.3ZM46.634-63.44c.836-1.72,2.113-4.522,2.113-4.522h.1s.246,2.8.492,4.522l.983,7.029H43.1Z" transform="translate(10.429 79.365)" fill="#d3d3d3"/>
  <path id="Path_35" data-name="Path 35" d="M5.883-13.792H9.12L7.133-24.556H3.986L-1.87-13.792H1.261l.8-1.6h3.6ZM4.227-19.678c.256-.527.647-1.385.647-1.385H4.9s.075.858.151,1.385l.3,2.153H3.143Zm5.3,5.887h7.558l.512-2.665H13.14l1.566-8.1H11.6Zm8.25,0h7.558l.512-2.665H21.39l1.566-8.1h-3.1Zm17.419,0h3.237L36.446-24.556H33.3L27.443-13.792h3.131l.8-1.6h3.6ZM33.54-19.678c.256-.527.647-1.385.647-1.385h.03s.075.858.151,1.385l.3,2.153H32.456ZM43.3-13.6c2.83,0,4.411-1.4,4.908-3.99l1.34-6.971H46.457l-1.34,6.9a1.646,1.646,0,0,1-1.7,1.566c-1.219,0-1.731-.677-1.521-1.777l1.295-6.685h-3.1l-1.219,6.308C38.222-14.906,40.405-13.6,43.3-13.6Zm6.414-8.31H52.66l-1.566,8.115h3.086l1.566-8.115h3l.512-2.65H50.221Zm13.7,8.371c3.493-.015,5.826-2.891,5.826-6.338,0-3.162-1.942-4.878-4.908-4.878-3.553,0-5.9,2.951-5.932,6.459C58.366-15.087,60.609-13.536,63.409-13.536Zm-1.9-4.757c0-1.746.828-3.944,2.71-3.96,1.4,0,1.9,1.039,1.9,2.364,0,1.777-.813,3.854-2.665,3.854C62.07-16.035,61.513-17.074,61.513-18.293Zm9.47,4.5h3l1.2-6.218h.03l2.017,6.218h3.222L82.53-24.556h-3l-1.2,6.173H78.3l-2.123-6.173H73.06Zm10.614,0h8.341l.512-2.665H85.209l.331-1.731h4.231l.452-2.334H86.007l.271-1.506h5.028l.5-2.529h-8.13Zm10.418-8.115h2.951L93.4-13.792h3.086l1.566-8.115h3l.512-2.65H92.526Zm10.629,8.115h3.177l1.716-4.562c.346-.933.723-2.153.723-2.153h.03s-.015,1.219.015,2.153l.151,4.562h3.131l4.607-10.764H113L111.646-20.9c-.452,1.2-1.084,3.086-1.084,3.086h-.03s.03-1.686-.015-2.936l-.151-3.809h-2.8l-1.475,3.839c-.482,1.235-1.069,2.906-1.069,2.906h-.03s.06-1.882.03-3.056l-.105-3.689h-3.071Zm17.253.256c3.493-.015,5.826-2.891,5.826-6.338,0-3.162-1.942-4.878-4.908-4.878-3.553,0-5.9,2.951-5.932,6.459C114.853-15.087,117.1-13.536,119.9-13.536ZM118-18.293c0-1.746.828-3.944,2.71-3.96,1.4,0,1.9,1.039,1.9,2.364,0,1.777-.813,3.854-2.665,3.854C118.557-16.035,118-17.074,118-18.293Zm12.526.738c1.024,0,1.325.527,1.325,1.415,0,.572-.045,1.235-.045,1.656a1.466,1.466,0,0,0,.12.693h3.131v-.166c-.12-.09-.211-.331-.211-.738-.015-.557.015-1.31.015-1.792a2.106,2.106,0,0,0-1.219-2.2v-.045a2.793,2.793,0,0,0,2.168-2.936c0-1.987-1.731-2.891-3.824-2.891h-4.562l-2.078,10.764h3.1l.723-3.764Zm-.467-4.562H131.5c.813,0,1.2.391,1.2,1.039a1.277,1.277,0,0,1-1.445,1.31h-1.656Zm12.029,8.326h3.418l-2.921-6.338,4.757-4.426h-3.6L139.935-20.9l.708-3.658h-3.1l-2.078,10.764h3.1l.647-3.342.979-.918Z" transform="translate(1.87 64.433)" fill="#1365b7"/>
  <path id="Path_36" data-name="Path 36" d="M-.888-44.222H8.893l3.932-20.3h.1l6.586,20.3H30.028l6.783-35.143H27.03L23.1-59.213H23l-6.93-20.152H5.895Z" transform="translate(73.499 79.365)" fill="#1365b7"/>
</svg>
