<?xml version="1.0" encoding="UTF-8"?><svg xmlns="http://www.w3.org/2000/svg" viewBox="0 0 128 128"><g id="Layer_2"><rect width="128" height="128"/></g><g id="Layer_1"><g id="layer1"><g id="g75"><path id="path28" d="M63.81,8.43l-9.48,35.87,9.48,9.55,8.61-9.69-8.61-35.73Z" style="fill:#fff;"/><path id="path47" d="M63.81,119.57l9.48-35.87-9.48-9.55-8.61,9.69,8.61,35.73Z" style="fill:#fff;"/><path id="path53" d="M114.04,37.13l-28.68,23.54-12.63-4.65,5.24-11.86,36.07-7.02Z" style="fill:#fff;"/><path id="path57" d="M114.04,90.45l-28.68-23.54-12.63,4.65,5.24,11.86,36.07,7.02Z" style="fill:#fff;"/><path id="path59" d="M13.96,37.13l28.68,23.54,12.63-4.65-5.24-11.86-36.07-7.02Z" style="fill:#fff;"/><path id="path61" d="M13.96,90.45l28.68-23.54,12.63,4.65-5.24,11.86-36.07,7.02Z" style="fill:#fff;"/></g></g></g></svg>