<?xml version="1.0" encoding="UTF-8"?>
<svg id="Layer_1" xmlns="http://www.w3.org/2000/svg" viewBox="0 0 21.61 24">
    <path fill="currentColor" d="M10.77,0l-2.05,7.75,2.05,2.06,1.86-2.09-1.86-7.71Z" />
    <path fill="currentColor" d="M10.77,24l2.05-7.75-2.05-2.06-1.86,2.09,1.86,7.71Z" />
    <path fill="currentColor" d="M21.61,6.2l-6.19,5.08-2.73-1.01,1.13-2.56,7.79-1.52Z" />
    <path fill="currentColor" d="M21.61,17.71l-6.19-5.08-2.73,1.01,1.13,2.56,7.79,1.52Z" />
    <path fill="currentColor" d="M0,6.2l6.19,5.08,2.73-1.01-1.13-2.56L0,6.2Z" />
    <path fill="currentColor" d="M0,17.71l6.19-5.08,2.73,1.01-1.13,2.56-7.79,1.52Z" />
</svg>